<mxfile host="app.diagrams.net" modified="2023-09-17T12:31:13.514Z" agent="Mozilla/5.0 (X11; Ubuntu; Linux x86_64; rv:109.0) Gecko/20100101 Firefox/117.0" etag="2mR7uhvsFdVmoXGyMcyZ" version="21.7.5" type="device">
  <diagram name="Page-1" id="RH7-aVa9IDNn28DVzp0J">
    <mxGraphModel dx="1990" dy="1320" grid="1" gridSize="10" guides="1" tooltips="1" connect="1" arrows="1" fold="1" page="1" pageScale="1" pageWidth="850" pageHeight="1100" math="0" shadow="0">
      <root>
        <mxCell id="0" />
        <mxCell id="1" parent="0" />
        <mxCell id="CJiFeiXSqc5BpMCndJ5I-25" value="" style="edgeStyle=orthogonalEdgeStyle;rounded=0;orthogonalLoop=1;jettySize=auto;html=1;" edge="1" parent="1" source="CJiFeiXSqc5BpMCndJ5I-1" target="CJiFeiXSqc5BpMCndJ5I-2">
          <mxGeometry relative="1" as="geometry" />
        </mxCell>
        <mxCell id="CJiFeiXSqc5BpMCndJ5I-1" value="&lt;div&gt;Init renderer&lt;/div&gt;&lt;font style=&quot;font-size: 8px;&quot;&gt;renderer::initialization&lt;/font&gt;" style="ellipse;whiteSpace=wrap;html=1;" vertex="1" parent="1">
          <mxGeometry x="90" y="220" width="120" height="80" as="geometry" />
        </mxCell>
        <mxCell id="CJiFeiXSqc5BpMCndJ5I-26" value="" style="edgeStyle=orthogonalEdgeStyle;rounded=0;orthogonalLoop=1;jettySize=auto;html=1;" edge="1" parent="1" source="CJiFeiXSqc5BpMCndJ5I-2" target="CJiFeiXSqc5BpMCndJ5I-3">
          <mxGeometry relative="1" as="geometry" />
        </mxCell>
        <mxCell id="CJiFeiXSqc5BpMCndJ5I-2" value="&lt;div&gt;Apply implementation-specific init&lt;/div&gt;&lt;div style=&quot;font-size: 8px;&quot;&gt;renderer_impl&lt;br&gt;&lt;/div&gt;" style="ellipse;whiteSpace=wrap;html=1;" vertex="1" parent="1">
          <mxGeometry x="240" y="220" width="120" height="80" as="geometry" />
        </mxCell>
        <mxCell id="CJiFeiXSqc5BpMCndJ5I-27" value="" style="edgeStyle=orthogonalEdgeStyle;rounded=0;orthogonalLoop=1;jettySize=auto;html=1;" edge="1" parent="1" source="CJiFeiXSqc5BpMCndJ5I-3" target="CJiFeiXSqc5BpMCndJ5I-5">
          <mxGeometry relative="1" as="geometry" />
        </mxCell>
        <mxCell id="CJiFeiXSqc5BpMCndJ5I-3" value="&lt;div&gt;Final init based on impl init&lt;/div&gt;&lt;div style=&quot;font-size: 8px;&quot;&gt;renderer::render_loop&lt;br&gt;&lt;/div&gt;" style="ellipse;whiteSpace=wrap;html=1;" vertex="1" parent="1">
          <mxGeometry x="400" y="220" width="120" height="80" as="geometry" />
        </mxCell>
        <mxCell id="CJiFeiXSqc5BpMCndJ5I-29" value="" style="edgeStyle=orthogonalEdgeStyle;rounded=0;orthogonalLoop=1;jettySize=auto;html=1;" edge="1" parent="1" source="CJiFeiXSqc5BpMCndJ5I-5" target="CJiFeiXSqc5BpMCndJ5I-6">
          <mxGeometry relative="1" as="geometry" />
        </mxCell>
        <mxCell id="CJiFeiXSqc5BpMCndJ5I-5" value="Create depth buffer" style="ellipse;whiteSpace=wrap;html=1;" vertex="1" parent="1">
          <mxGeometry x="400" y="320" width="120" height="80" as="geometry" />
        </mxCell>
        <mxCell id="CJiFeiXSqc5BpMCndJ5I-32" value="" style="edgeStyle=orthogonalEdgeStyle;rounded=0;orthogonalLoop=1;jettySize=auto;html=1;" edge="1" parent="1" source="CJiFeiXSqc5BpMCndJ5I-6" target="CJiFeiXSqc5BpMCndJ5I-7">
          <mxGeometry relative="1" as="geometry" />
        </mxCell>
        <mxCell id="CJiFeiXSqc5BpMCndJ5I-6" value="Create framebuffers &amp;amp; swapchain image views" style="ellipse;whiteSpace=wrap;html=1;" vertex="1" parent="1">
          <mxGeometry x="390" y="420" width="140" height="80" as="geometry" />
        </mxCell>
        <mxCell id="CJiFeiXSqc5BpMCndJ5I-33" value="" style="edgeStyle=orthogonalEdgeStyle;rounded=0;orthogonalLoop=1;jettySize=auto;html=1;" edge="1" parent="1" source="CJiFeiXSqc5BpMCndJ5I-7" target="CJiFeiXSqc5BpMCndJ5I-8">
          <mxGeometry relative="1" as="geometry" />
        </mxCell>
        <mxCell id="CJiFeiXSqc5BpMCndJ5I-7" value="Create pipelines" style="ellipse;whiteSpace=wrap;html=1;" vertex="1" parent="1">
          <mxGeometry x="390" y="520" width="140" height="80" as="geometry" />
        </mxCell>
        <mxCell id="CJiFeiXSqc5BpMCndJ5I-34" value="" style="edgeStyle=orthogonalEdgeStyle;rounded=0;orthogonalLoop=1;jettySize=auto;html=1;" edge="1" parent="1" source="CJiFeiXSqc5BpMCndJ5I-8" target="CJiFeiXSqc5BpMCndJ5I-11">
          <mxGeometry relative="1" as="geometry" />
        </mxCell>
        <mxCell id="CJiFeiXSqc5BpMCndJ5I-8" value="&lt;div&gt;Init descriptor sets&lt;/div&gt;&lt;div&gt;&lt;font style=&quot;font-size: 8px;&quot;&gt;PipelineProvider::init_descriptor_sets&lt;/font&gt;&lt;br&gt;&lt;/div&gt;" style="ellipse;whiteSpace=wrap;html=1;" vertex="1" parent="1">
          <mxGeometry x="390" y="620" width="140" height="80" as="geometry" />
        </mxCell>
        <mxCell id="CJiFeiXSqc5BpMCndJ5I-38" value="" style="edgeStyle=orthogonalEdgeStyle;rounded=0;orthogonalLoop=1;jettySize=auto;html=1;" edge="1" parent="1" source="CJiFeiXSqc5BpMCndJ5I-9" target="CJiFeiXSqc5BpMCndJ5I-10">
          <mxGeometry relative="1" as="geometry" />
        </mxCell>
        <mxCell id="CJiFeiXSqc5BpMCndJ5I-9" value="Execute impl-specific init command buffer (textures etc)" style="ellipse;whiteSpace=wrap;html=1;" vertex="1" parent="1">
          <mxGeometry x="380" y="820" width="160" height="80" as="geometry" />
        </mxCell>
        <mxCell id="CJiFeiXSqc5BpMCndJ5I-39" value="" style="edgeStyle=orthogonalEdgeStyle;rounded=0;orthogonalLoop=1;jettySize=auto;html=1;" edge="1" parent="1" source="CJiFeiXSqc5BpMCndJ5I-10" target="CJiFeiXSqc5BpMCndJ5I-12">
          <mxGeometry relative="1" as="geometry" />
        </mxCell>
        <mxCell id="CJiFeiXSqc5BpMCndJ5I-10" value="Create GUI" style="ellipse;whiteSpace=wrap;html=1;" vertex="1" parent="1">
          <mxGeometry x="405" y="920" width="110" height="60" as="geometry" />
        </mxCell>
        <mxCell id="CJiFeiXSqc5BpMCndJ5I-36" value="" style="edgeStyle=orthogonalEdgeStyle;rounded=0;orthogonalLoop=1;jettySize=auto;html=1;" edge="1" parent="1" source="CJiFeiXSqc5BpMCndJ5I-11" target="CJiFeiXSqc5BpMCndJ5I-9">
          <mxGeometry relative="1" as="geometry" />
        </mxCell>
        <mxCell id="CJiFeiXSqc5BpMCndJ5I-11" value="&lt;div&gt;Create render passes&lt;br&gt;&lt;/div&gt;&lt;div&gt;&lt;font style=&quot;font-size: 8px;&quot;&gt;get_finalized_render_passes&lt;/font&gt;&lt;br&gt;&lt;/div&gt;" style="ellipse;whiteSpace=wrap;html=1;" vertex="1" parent="1">
          <mxGeometry x="390" y="720" width="140" height="80" as="geometry" />
        </mxCell>
        <mxCell id="CJiFeiXSqc5BpMCndJ5I-12" value="event_loop.run()" style="ellipse;whiteSpace=wrap;html=1;" vertex="1" parent="1">
          <mxGeometry x="405" y="1000" width="110" height="60" as="geometry" />
        </mxCell>
        <mxCell id="CJiFeiXSqc5BpMCndJ5I-13" value="Update GUI" style="ellipse;whiteSpace=wrap;html=1;" vertex="1" parent="1">
          <mxGeometry x="250" y="1110" width="110" height="60" as="geometry" />
        </mxCell>
        <mxCell id="CJiFeiXSqc5BpMCndJ5I-14" value="camera::recv_input" style="ellipse;whiteSpace=wrap;html=1;" vertex="1" parent="1">
          <mxGeometry x="380" y="1110" width="110" height="60" as="geometry" />
        </mxCell>
        <mxCell id="CJiFeiXSqc5BpMCndJ5I-49" value="" style="edgeStyle=orthogonalEdgeStyle;rounded=0;orthogonalLoop=1;jettySize=auto;html=1;" edge="1" parent="1" source="CJiFeiXSqc5BpMCndJ5I-15" target="CJiFeiXSqc5BpMCndJ5I-16">
          <mxGeometry relative="1" as="geometry" />
        </mxCell>
        <mxCell id="CJiFeiXSqc5BpMCndJ5I-15" value="Recreate Swapchain" style="ellipse;whiteSpace=wrap;html=1;" vertex="1" parent="1">
          <mxGeometry x="507.5" y="1180" width="110" height="60" as="geometry" />
        </mxCell>
        <mxCell id="CJiFeiXSqc5BpMCndJ5I-51" value="" style="edgeStyle=orthogonalEdgeStyle;rounded=0;orthogonalLoop=1;jettySize=auto;html=1;" edge="1" parent="1" source="CJiFeiXSqc5BpMCndJ5I-16" target="CJiFeiXSqc5BpMCndJ5I-17">
          <mxGeometry relative="1" as="geometry" />
        </mxCell>
        <mxCell id="CJiFeiXSqc5BpMCndJ5I-16" value="Recreate Depth Buffer" style="ellipse;whiteSpace=wrap;html=1;" vertex="1" parent="1">
          <mxGeometry x="507.5" y="1260" width="110" height="60" as="geometry" />
        </mxCell>
        <mxCell id="CJiFeiXSqc5BpMCndJ5I-52" value="" style="edgeStyle=orthogonalEdgeStyle;rounded=0;orthogonalLoop=1;jettySize=auto;html=1;" edge="1" parent="1" source="CJiFeiXSqc5BpMCndJ5I-17">
          <mxGeometry relative="1" as="geometry">
            <mxPoint x="562.5" y="1430" as="targetPoint" />
          </mxGeometry>
        </mxCell>
        <mxCell id="CJiFeiXSqc5BpMCndJ5I-17" value="Recreate Frame Buffers" style="ellipse;whiteSpace=wrap;html=1;" vertex="1" parent="1">
          <mxGeometry x="507.5" y="1340" width="110" height="60" as="geometry" />
        </mxCell>
        <mxCell id="CJiFeiXSqc5BpMCndJ5I-18" value="Recreate Render passes, update camera aspect" style="ellipse;whiteSpace=wrap;html=1;" vertex="1" parent="1">
          <mxGeometry x="497.5" y="1430" width="130" height="60" as="geometry" />
        </mxCell>
        <mxCell id="CJiFeiXSqc5BpMCndJ5I-62" value="" style="edgeStyle=orthogonalEdgeStyle;rounded=0;orthogonalLoop=1;jettySize=auto;html=1;" edge="1" parent="1" source="CJiFeiXSqc5BpMCndJ5I-19" target="CJiFeiXSqc5BpMCndJ5I-20">
          <mxGeometry relative="1" as="geometry" />
        </mxCell>
        <mxCell id="CJiFeiXSqc5BpMCndJ5I-19" value="Setup GUI" style="ellipse;whiteSpace=wrap;html=1;" vertex="1" parent="1">
          <mxGeometry x="640" y="1540" width="120" height="80" as="geometry" />
        </mxCell>
        <mxCell id="CJiFeiXSqc5BpMCndJ5I-63" value="" style="edgeStyle=orthogonalEdgeStyle;rounded=0;orthogonalLoop=1;jettySize=auto;html=1;" edge="1" parent="1" source="CJiFeiXSqc5BpMCndJ5I-20" target="CJiFeiXSqc5BpMCndJ5I-21">
          <mxGeometry relative="1" as="geometry" />
        </mxCell>
        <mxCell id="CJiFeiXSqc5BpMCndJ5I-20" value="Acquire next swapchain image" style="ellipse;whiteSpace=wrap;html=1;" vertex="1" parent="1">
          <mxGeometry x="640" y="1640" width="120" height="80" as="geometry" />
        </mxCell>
        <mxCell id="CJiFeiXSqc5BpMCndJ5I-64" value="" style="edgeStyle=orthogonalEdgeStyle;rounded=0;orthogonalLoop=1;jettySize=auto;html=1;" edge="1" parent="1" source="CJiFeiXSqc5BpMCndJ5I-21" target="CJiFeiXSqc5BpMCndJ5I-22">
          <mxGeometry relative="1" as="geometry" />
        </mxCell>
        <mxCell id="CJiFeiXSqc5BpMCndJ5I-21" value="Update camera &amp;amp; other uniforms" style="ellipse;whiteSpace=wrap;html=1;" vertex="1" parent="1">
          <mxGeometry x="640" y="1740" width="120" height="80" as="geometry" />
        </mxCell>
        <mxCell id="CJiFeiXSqc5BpMCndJ5I-65" value="" style="edgeStyle=orthogonalEdgeStyle;rounded=0;orthogonalLoop=1;jettySize=auto;html=1;" edge="1" parent="1" source="CJiFeiXSqc5BpMCndJ5I-22" target="CJiFeiXSqc5BpMCndJ5I-23">
          <mxGeometry relative="1" as="geometry" />
        </mxCell>
        <mxCell id="CJiFeiXSqc5BpMCndJ5I-22" value="Let pipeline draw" style="ellipse;whiteSpace=wrap;html=1;" vertex="1" parent="1">
          <mxGeometry x="640" y="1840" width="120" height="80" as="geometry" />
        </mxCell>
        <mxCell id="CJiFeiXSqc5BpMCndJ5I-66" value="" style="edgeStyle=orthogonalEdgeStyle;rounded=0;orthogonalLoop=1;jettySize=auto;html=1;" edge="1" parent="1" source="CJiFeiXSqc5BpMCndJ5I-23" target="CJiFeiXSqc5BpMCndJ5I-24">
          <mxGeometry relative="1" as="geometry" />
        </mxCell>
        <mxCell id="CJiFeiXSqc5BpMCndJ5I-23" value="Draw GUI" style="ellipse;whiteSpace=wrap;html=1;" vertex="1" parent="1">
          <mxGeometry x="640" y="1940" width="120" height="80" as="geometry" />
        </mxCell>
        <mxCell id="CJiFeiXSqc5BpMCndJ5I-24" value="Present swapchain image" style="ellipse;whiteSpace=wrap;html=1;" vertex="1" parent="1">
          <mxGeometry x="640" y="2040" width="120" height="80" as="geometry" />
        </mxCell>
        <mxCell id="CJiFeiXSqc5BpMCndJ5I-40" value="" style="endArrow=classic;html=1;rounded=0;exitX=0.5;exitY=1;exitDx=0;exitDy=0;entryX=0.5;entryY=0;entryDx=0;entryDy=0;" edge="1" parent="1" source="CJiFeiXSqc5BpMCndJ5I-12" target="CJiFeiXSqc5BpMCndJ5I-13">
          <mxGeometry width="50" height="50" relative="1" as="geometry">
            <mxPoint x="550" y="1020" as="sourcePoint" />
            <mxPoint x="600" y="970" as="targetPoint" />
          </mxGeometry>
        </mxCell>
        <mxCell id="CJiFeiXSqc5BpMCndJ5I-42" value="" style="endArrow=classic;html=1;rounded=0;entryX=0.5;entryY=0;entryDx=0;entryDy=0;" edge="1" parent="1" target="CJiFeiXSqc5BpMCndJ5I-14">
          <mxGeometry width="50" height="50" relative="1" as="geometry">
            <mxPoint x="460" y="1060" as="sourcePoint" />
            <mxPoint x="580" y="1000" as="targetPoint" />
          </mxGeometry>
        </mxCell>
        <mxCell id="CJiFeiXSqc5BpMCndJ5I-43" value="" style="endArrow=classic;html=1;rounded=0;exitX=0.5;exitY=1;exitDx=0;exitDy=0;" edge="1" parent="1" source="CJiFeiXSqc5BpMCndJ5I-12">
          <mxGeometry width="50" height="50" relative="1" as="geometry">
            <mxPoint x="530" y="1050" as="sourcePoint" />
            <mxPoint x="565" y="1100" as="targetPoint" />
          </mxGeometry>
        </mxCell>
        <mxCell id="CJiFeiXSqc5BpMCndJ5I-44" value="Redraw events cleared" style="text;html=1;strokeColor=none;fillColor=none;align=center;verticalAlign=middle;whiteSpace=wrap;rounded=0;fontSize=8;" vertex="1" parent="1">
          <mxGeometry x="500" y="1060" width="100" height="30" as="geometry" />
        </mxCell>
        <mxCell id="CJiFeiXSqc5BpMCndJ5I-45" value="Main events cleared" style="text;html=1;strokeColor=none;fillColor=none;align=left;verticalAlign=middle;whiteSpace=wrap;rounded=0;fontSize=8;" vertex="1" parent="1">
          <mxGeometry x="440" y="1090" width="100" height="20" as="geometry" />
        </mxCell>
        <mxCell id="CJiFeiXSqc5BpMCndJ5I-46" value="WindowEvent (just forward)" style="text;html=1;strokeColor=none;fillColor=none;align=left;verticalAlign=middle;whiteSpace=wrap;rounded=0;fontSize=8;" vertex="1" parent="1">
          <mxGeometry x="300" y="1065" width="110" height="20" as="geometry" />
        </mxCell>
        <mxCell id="CJiFeiXSqc5BpMCndJ5I-57" value="" style="edgeStyle=orthogonalEdgeStyle;rounded=0;orthogonalLoop=1;jettySize=auto;html=1;" edge="1" parent="1" source="CJiFeiXSqc5BpMCndJ5I-55" target="CJiFeiXSqc5BpMCndJ5I-15">
          <mxGeometry relative="1" as="geometry" />
        </mxCell>
        <mxCell id="CJiFeiXSqc5BpMCndJ5I-55" value="recreate render passes || recreate swapchain" style="rhombus;whiteSpace=wrap;html=1;fontSize=9;" vertex="1" parent="1">
          <mxGeometry x="505" y="1100" width="115" height="60" as="geometry" />
        </mxCell>
        <mxCell id="CJiFeiXSqc5BpMCndJ5I-58" value="" style="endArrow=classic;html=1;rounded=0;exitX=1;exitY=0.5;exitDx=0;exitDy=0;entryX=0.5;entryY=0;entryDx=0;entryDy=0;" edge="1" parent="1" source="CJiFeiXSqc5BpMCndJ5I-55" target="CJiFeiXSqc5BpMCndJ5I-19">
          <mxGeometry width="50" height="50" relative="1" as="geometry">
            <mxPoint x="770" y="1160" as="sourcePoint" />
            <mxPoint x="820" y="1110" as="targetPoint" />
            <Array as="points">
              <mxPoint x="700" y="1130" />
            </Array>
          </mxGeometry>
        </mxCell>
        <mxCell id="CJiFeiXSqc5BpMCndJ5I-59" value="false" style="text;html=1;strokeColor=none;fillColor=none;align=center;verticalAlign=middle;whiteSpace=wrap;rounded=0;fontSize=8;" vertex="1" parent="1">
          <mxGeometry x="620" y="1120" width="42.5" height="10" as="geometry" />
        </mxCell>
        <mxCell id="CJiFeiXSqc5BpMCndJ5I-61" value="" style="endArrow=classic;html=1;rounded=0;exitX=0.5;exitY=1;exitDx=0;exitDy=0;entryX=0;entryY=0;entryDx=0;entryDy=0;" edge="1" parent="1" source="CJiFeiXSqc5BpMCndJ5I-18" target="CJiFeiXSqc5BpMCndJ5I-19">
          <mxGeometry width="50" height="50" relative="1" as="geometry">
            <mxPoint x="450" y="1710" as="sourcePoint" />
            <mxPoint x="500" y="1660" as="targetPoint" />
            <Array as="points">
              <mxPoint x="563" y="1540" />
            </Array>
          </mxGeometry>
        </mxCell>
        <mxCell id="CJiFeiXSqc5BpMCndJ5I-67" value="" style="endArrow=classic;html=1;rounded=0;exitX=0.5;exitY=1;exitDx=0;exitDy=0;entryX=1;entryY=0.5;entryDx=0;entryDy=0;" edge="1" parent="1" source="CJiFeiXSqc5BpMCndJ5I-24" target="CJiFeiXSqc5BpMCndJ5I-12">
          <mxGeometry width="50" height="50" relative="1" as="geometry">
            <mxPoint x="960" y="2090" as="sourcePoint" />
            <mxPoint x="1010" y="2040" as="targetPoint" />
            <Array as="points">
              <mxPoint x="700" y="2160" />
              <mxPoint x="850" y="2160" />
              <mxPoint x="850" y="1030" />
            </Array>
          </mxGeometry>
        </mxCell>
      </root>
    </mxGraphModel>
  </diagram>
</mxfile>
